<?xml version="1.0" encoding="UTF-8" standalone="no"?>
<svg width="30px" height="30px" viewBox="0 0 40 40" version="1.1" xmlns="http://www.w3.org/2000/svg" xmlns:xlink="http://www.w3.org/1999/xlink">
    <!-- Generator: Sketch 3.8.1 (29687) - http://www.bohemiancoding.com/sketch -->
    <title>slack</title>
    <desc>Created with Sketch.</desc>
    <defs>
        <polygon id="path-1" points="6.5463337e-05 39.9809524 39.6983472 39.9809524 39.6983472 0.301652765 6.5463337e-05 0.301652765"></polygon>
    </defs>
    <g id="#14-Travel" stroke="none" stroke-width="1" fill="none" fill-rule="evenodd">
        <g id="Landing-Page" transform="translate(-681.000000, -635.000000)">
            <g id="Header">
                <g id="Button" transform="translate(630.000000, 620.000000)">
                    <g id="Group" transform="translate(51.000000, 15.000000)">
                        <g id="slack">
                            <polyline id="Fill-8" fill="#FFFFFF" points="16.3419048 18.4863492 18.0520635 23.591746 23.3561905 21.8152381 21.6463492 16.7098413 16.3419048 18.4863492"></polyline>
                            <g id="Group-12">
                                <mask id="mask-2" fill="white">
                                    <use xlink:href="#path-1"></use>
                                </mask>
                                <g id="Clip-10"></g>
                                <polyline id="Fill-9" fill="#FFFFFF" mask="url(#mask-2)" points="16.3419048 18.4863492 18.0520635 23.591746 23.3561905 21.8152381 21.6463492 16.7098413 16.3419048 18.4863492"></polyline>
                                <path d="M31.1374603,23.5495238 L28.5653968,24.4107937 L29.4568254,27.0720635 C29.8177778,28.1498413 29.2368254,29.3161905 28.1590476,29.6768254 C27.9247619,29.7555556 27.6860317,29.7895238 27.4526984,29.7831746 C26.6120635,29.7615873 25.8368254,29.2225397 25.5546032,28.3793651 L24.6631746,25.7177778 L19.3590476,27.4939683 L20.2504762,30.1555556 C20.6114286,31.2330159 20.0304762,32.3993651 18.9526984,32.7603175 C18.7184127,32.8387302 18.48,32.8726984 18.2463492,32.8666667 C17.4060317,32.8447619 16.6307937,32.3057143 16.348254,31.4625397 L15.4568254,28.8009524 L12.8844444,29.6625397 C12.6498413,29.7409524 12.4114286,29.7749206 12.1777778,29.7688889 C11.3374603,29.7469841 10.5622222,29.2079365 10.2796825,28.3647619 C9.91873016,27.2869841 10.5,26.1209524 11.5774603,25.76 L14.1498413,24.8987302 L12.4396825,19.7933333 L9.86761905,20.6546032 C9.63333333,20.7330159 9.39460317,20.7669841 9.16095238,20.7609524 C8.32095238,20.7390476 7.54539683,20.2 7.2631746,19.3568254 C6.90222222,18.2790476 7.4831746,17.1130159 8.56095238,16.7520635 L11.1326984,15.8907937 L10.2412698,13.2292063 C9.88031746,12.151746 10.4612698,10.9857143 11.5390476,10.6244444 C12.6168254,10.2638095 13.7828571,10.8447619 14.1434921,11.9222222 L15.0349206,14.5838095 L20.3390476,12.807619 L19.447619,10.1460317 C19.0866667,9.06825397 19.6679365,7.90222222 20.7453968,7.54126984 C21.8228571,7.18031746 22.9892063,7.7615873 23.3501587,8.83904762 L24.2415873,11.5006349 L26.8136508,10.6390476 C27.891746,10.2784127 29.0574603,10.8593651 29.4184127,11.9368254 C29.7793651,13.0146032 29.1980952,14.1806349 28.1206349,14.5415873 L25.5485714,15.4028571 L27.2584127,20.5085714 L29.8307937,19.6469841 C30.9085714,19.2863492 32.0746032,19.8673016 32.4352381,20.9447619 C32.7961905,22.0222222 32.2152381,23.1885714 31.1374603,23.5495238 L31.1374603,23.5495238 Z M38.0368254,14.6942857 C33.9444444,1.05365079 28.0333333,-2.12920635 14.3926984,1.9631746 C0.752063492,6.05555556 -2.43079365,11.9666667 1.6615873,25.6073016 C5.75396825,39.2479365 11.6650794,42.4307937 25.3057143,38.3384127 C38.9463492,34.2460317 42.1292063,28.3349206 38.0368254,14.6942857 L38.0368254,14.6942857 Z" id="Fill-11" fill="#FFFFFF" mask="url(#mask-2)"></path>
                            </g>
                        </g>
                    </g>
                </g>
            </g>
        </g>
    </g>
</svg>